<svg width="24" height="25" viewBox="0 0 24 25" fill="none" xmlns="http://www.w3.org/2000/svg">
<mask id="mask0_2172_92" style="mask-type:alpha" maskUnits="userSpaceOnUse" x="0" y="0" width="24" height="25">
<rect y="0.5" width="24" height="24" fill="#D9D9D9"/>
</mask>
<g mask="url(#mask0_2172_92)">
<path d="M12.0027 14.4712L17.1762 9.29764C17.3126 9.1612 17.4733 9.09469 17.6582 9.09813C17.8431 9.10168 18.0039 9.17167 18.1403 9.30812C18.2767 9.44468 18.345 9.60539 18.345 9.79025C18.345 9.97512 18.2767 10.1358 18.1403 10.2724L12.8823 15.5408C12.7581 15.665 12.619 15.7571 12.4649 15.8169C12.3108 15.8768 12.1568 15.9067 12.0027 15.9067C11.8486 15.9067 11.6946 15.8768 11.5405 15.8169C11.3864 15.7571 11.2473 15.665 11.1231 15.5408L5.85445 10.2724C5.718 10.1358 5.65155 9.97334 5.6551 9.78493C5.65865 9.59652 5.72865 9.43409 5.86509 9.29764C6.00154 9.1612 6.16225 9.09298 6.34723 9.09298C6.53209 9.09298 6.69275 9.1612 6.82919 9.29764L12.0027 14.4712Z" fill="#F7F7F7"/>
</g>
</svg>
