<svg width="17" height="18" viewBox="0 0 17 18" fill="none" xmlns="http://www.w3.org/2000/svg">
<path d="M16.292 2.8623C16.683 2.86248 17 3.17977 17 3.57129C16.9999 3.9627 16.683 4.2801 16.292 4.28027H2.83398V13.0361C2.83417 14.9941 4.41919 16.581 6.375 16.5811H10.625C12.5809 16.5811 14.1668 14.9942 14.167 13.0361V5.81738C14.167 5.4258 14.4839 5.10849 14.875 5.1084C15.2662 5.1084 15.584 5.42574 15.584 5.81738V13.0361C15.5838 15.7775 13.3633 18 10.625 18H6.375C3.63678 17.9999 1.41718 15.7774 1.41699 13.0361V4.28027H0.708008C0.317029 4.2801 0.00011842 3.96271 0 3.57129C0 3.17977 0.316956 2.86248 0.708008 2.8623H16.292ZM6.375 6.23047C6.76606 6.23056 7.08291 6.54797 7.08301 6.93945V13C7.08301 13.3916 6.76612 13.7089 6.375 13.709C5.9838 13.709 5.66602 13.3916 5.66602 13V6.93945C5.66611 6.54791 5.98386 6.23047 6.375 6.23047ZM10.625 6.23047C11.0161 6.23056 11.3329 6.54797 11.333 6.93945V13C11.333 13.3916 11.0161 13.7089 10.625 13.709C10.2338 13.709 9.91602 13.3916 9.91602 13V6.93945C9.91611 6.54791 10.2339 6.23047 10.625 6.23047ZM11.333 0C11.7242 3.86936e-07 12.041 0.317413 12.041 0.708984C12.041 1.10061 11.7242 1.41797 11.333 1.41797H5.66602C5.27496 1.41779 4.95801 1.1005 4.95801 0.708984C4.95807 0.317521 5.275 0.000175996 5.66602 0H11.333Z" fill="#F7F7F7"/>
</svg>
