<svg width="25" height="24" viewBox="0 0 25 24" fill="none" xmlns="http://www.w3.org/2000/svg">
<mask id="mask0_2186_917" style="mask-type:alpha" maskUnits="userSpaceOnUse" x="0" y="0" width="25" height="24">
<rect x="0.5" width="24" height="24" fill="#D9D9D9"/>
</mask>
<g mask="url(#mask0_2186_917)">
<path d="M12.55 19.75C10.3872 19.75 8.54651 18.9974 7.02801 17.4923C5.50934 15.9871 4.75001 14.1563 4.75001 12V11.2192L3.42701 12.5423C3.28851 12.6808 3.11443 12.7516 2.90476 12.7548C2.69526 12.7579 2.51801 12.6871 2.37301 12.5423C2.22818 12.3974 2.15576 12.2218 2.15576 12.0155C2.15576 11.809 2.22818 11.6333 2.37301 11.4885L4.86726 8.99425C5.04809 8.81342 5.25901 8.723 5.50001 8.723C5.74101 8.723 5.95193 8.81342 6.13276 8.99425L8.62701 11.4885C8.76534 11.627 8.83618 11.801 8.83951 12.0105C8.84268 12.2202 8.77184 12.3974 8.62701 12.5423C8.48201 12.6871 8.30634 12.7595 8.10001 12.7595C7.89368 12.7595 7.71801 12.6871 7.57301 12.5423L6.25001 11.2192V12C6.25001 13.7372 6.86151 15.2132 8.08451 16.428C9.30768 17.6427 10.7962 18.25 12.55 18.25C12.8423 18.25 13.1337 18.2302 13.424 18.1905C13.7145 18.1507 14.0008 18.0827 14.2828 17.9865C14.4956 17.9225 14.6965 17.9293 14.8855 18.0068C15.0747 18.0843 15.2167 18.216 15.3115 18.402C15.4063 18.5982 15.4124 18.7933 15.3298 18.9875C15.2471 19.1817 15.0993 19.3108 14.8865 19.375C14.5097 19.5083 14.1244 19.6042 13.7308 19.6625C13.3373 19.7208 12.9437 19.75 12.55 19.75ZM12.45 5.75C12.1577 5.75 11.8663 5.76983 11.576 5.8095C11.2855 5.84933 10.9993 5.91733 10.7173 6.0135C10.5044 6.0775 10.3009 6.07075 10.1068 5.99325C9.91259 5.91575 9.76801 5.784 9.67301 5.598C9.57818 5.41217 9.57051 5.22217 9.65001 5.028C9.72951 4.83367 9.87051 4.7045 10.073 4.6405C10.4602 4.50717 10.8522 4.40875 11.249 4.34525C11.6458 4.28175 12.0462 4.25 12.45 4.25C14.6128 4.25 16.4535 5.00258 17.972 6.50775C19.4907 8.01292 20.25 9.84367 20.25 12V12.7808L21.573 11.4577C21.7115 11.3192 21.8856 11.2484 22.0953 11.2453C22.3048 11.2421 22.482 11.3129 22.627 11.4577C22.7718 11.6026 22.8443 11.7782 22.8443 11.9845C22.8443 12.191 22.7718 12.3667 22.627 12.5115L20.1328 15.0058C19.9519 15.1866 19.741 15.277 19.5 15.277C19.259 15.277 19.0481 15.1866 18.8673 15.0058L16.373 12.5115C16.2347 12.373 16.1638 12.199 16.1605 11.9895C16.1573 11.7798 16.2282 11.6026 16.373 11.4577C16.518 11.3129 16.6937 11.2405 16.9 11.2405C17.1063 11.2405 17.282 11.3129 17.427 11.4577L18.75 12.7808V12C18.75 10.2628 18.1385 8.78683 16.9155 7.572C15.6923 6.35733 14.2038 5.75 12.45 5.75Z" fill="#EF4B56"/>
</g>
</svg>
