<svg width="160" height="160" viewBox="0 0 160 160" fill="none" xmlns="http://www.w3.org/2000/svg">
<mask id="mask0_2228_1592" style="mask-type:alpha" maskUnits="userSpaceOnUse" x="0" y="0" width="160" height="160">
<rect width="160" height="160" fill="#D9D9D9"/>
</mask>
<g mask="url(#mask0_2228_1592)">
<path d="M42.59 129.997C33.5411 129.997 25.8472 126.838 19.5083 120.519C13.1694 114.2 10 106.516 10 97.4671C10 89.3138 12.6939 82.1143 18.0817 75.8688C23.4694 69.6243 30.2372 66.0488 38.385 65.1421C40.2372 54.9199 45.0828 46.5182 52.9217 39.9371C60.7606 33.356 69.8467 30.0654 80.18 30.0654C91.9544 30.0654 101.925 34.2727 110.092 42.6871C118.258 51.1015 122.342 61.256 122.342 73.1504V78.4671H124.393C131.584 78.4727 137.65 80.9443 142.59 85.8821C147.53 90.8188 150 96.9282 150 104.21C150 111.316 147.478 117.39 142.435 122.432C137.393 127.475 131.319 129.997 124.213 129.997H84.1883V78.8171L95.1917 89.7871C95.995 90.6193 96.9617 91.0354 98.0917 91.0354C99.2217 91.0354 100.199 90.6221 101.025 89.7954C101.843 88.9921 102.248 87.9982 102.242 86.8138C102.234 85.6282 101.828 84.6338 101.025 83.8304L83.6533 66.3904C82.6133 65.3504 81.3956 64.8304 80 64.8304C78.6044 64.8304 77.3867 65.3504 76.3467 66.3904L58.9067 83.8304C58.1033 84.6338 57.7033 85.611 57.7067 86.7621C57.7111 87.9132 58.1339 88.8877 58.975 89.6854C59.7783 90.5165 60.7739 90.9204 61.9617 90.8971C63.1494 90.8727 64.1567 90.4588 64.9833 89.6554L75.8117 78.8171V129.997H42.59Z" fill="#4F5052"/>
</g>
</svg>
