<svg width="25" height="24" viewBox="0 0 25 24" fill="none" xmlns="http://www.w3.org/2000/svg">
<mask id="mask0_2186_1030" style="mask-type:alpha" maskUnits="userSpaceOnUse" x="0" y="0" width="25" height="24">
<rect x="0.5" width="24" height="24" fill="#D9D9D9"/>
</mask>
<g mask="url(#mask0_2186_1030)">
<path d="M5.80775 20.5C5.31058 20.5 4.885 20.323 4.531 19.969C4.177 19.615 4 19.1894 4 18.6923V5.30775C4 4.81058 4.177 4.385 4.531 4.031C4.885 3.677 5.31058 3.5 5.80775 3.5H19.1923C19.6894 3.5 20.115 3.677 20.469 4.031C20.823 4.385 21 4.81058 21 5.30775V10.3655C21 10.578 20.9281 10.7561 20.7843 10.8997C20.6404 11.0436 20.4622 11.1155 20.2498 11.1155C20.0371 11.1155 19.859 11.0436 19.7155 10.8997C19.5718 10.7561 19.5 10.578 19.5 10.3655V5.30775C19.5 5.23075 19.4679 5.16025 19.4038 5.09625C19.3398 5.03208 19.2692 5 19.1923 5H5.80775C5.73075 5 5.66025 5.03208 5.59625 5.09625C5.53208 5.16025 5.5 5.23075 5.5 5.30775V18.6923C5.5 18.7692 5.53208 18.8398 5.59625 18.9038C5.66025 18.9679 5.73075 19 5.80775 19H10.8655C11.078 19 11.2561 19.0719 11.3997 19.2158C11.5436 19.3596 11.6155 19.5378 11.6155 19.7502C11.6155 19.9629 11.5436 20.141 11.3997 20.2845C11.2561 20.4282 11.078 20.5 10.8655 20.5H5.80775ZM5.5 19V5V11.1905V11.1155V19ZM7.75 15.885C7.75 16.0975 7.82192 16.2756 7.96575 16.4193C8.10942 16.5628 8.2875 16.6345 8.5 16.6345H11.0173C11.2298 16.6345 11.4079 16.5626 11.5518 16.4187C11.6954 16.2751 11.7673 16.0969 11.7673 15.8842C11.7673 15.6718 11.6954 15.4937 11.5518 15.35C11.4079 15.2065 11.2298 15.1348 11.0173 15.1348H8.5C8.2875 15.1348 8.10942 15.2066 7.96575 15.3503C7.82192 15.4941 7.75 15.6723 7.75 15.885ZM7.75 12.0003C7.75 12.2129 7.82192 12.391 7.96575 12.5345C8.10942 12.6782 8.2875 12.75 8.5 12.75H14.2405C14.453 12.75 14.6311 12.6781 14.7747 12.5343C14.9186 12.3904 14.9905 12.2122 14.9905 11.9998C14.9905 11.7871 14.9186 11.609 14.7747 11.4655C14.6311 11.3218 14.453 11.25 14.2405 11.25H8.5C8.2875 11.25 8.10942 11.3219 7.96575 11.4658C7.82192 11.6096 7.75 11.7878 7.75 12.0003ZM7.75 8.11575C7.75 8.32825 7.82192 8.50633 7.96575 8.65C8.10942 8.7935 8.2875 8.86525 8.5 8.86525H16.5C16.7125 8.86525 16.8906 8.79342 17.0343 8.64975C17.1781 8.50592 17.25 8.32767 17.25 8.115C17.25 7.9025 17.1781 7.72442 17.0343 7.58075C16.8906 7.43725 16.7125 7.3655 16.5 7.3655H8.5C8.2875 7.3655 8.10942 7.43742 7.96575 7.58125C7.82192 7.72492 7.75 7.90308 7.75 8.11575Z" fill="#F7F7F7"/>
<path d="M14.9905 17.25H17.2405V19.5C17.2405 19.7125 17.3123 19.8906 17.456 20.0343C17.5995 20.1781 17.7776 20.25 17.9902 20.25C18.2027 20.25 18.3809 20.1781 18.5247 20.0343C18.6686 19.8906 18.7405 19.7125 18.7405 19.5V17.25H20.9905C21.203 17.25 21.3812 17.1782 21.525 17.0345C21.6687 16.891 21.7405 16.7129 21.7405 16.5002C21.7405 16.2878 21.6687 16.1096 21.525 15.9657C21.3812 15.8219 21.203 15.75 20.9905 15.75H18.7405V13.5C18.7405 13.2875 18.6687 13.1094 18.525 12.9657C18.3815 12.8219 18.2034 12.75 17.9907 12.75C17.7782 12.75 17.6001 12.8219 17.4563 12.9657C17.3124 13.1094 17.2405 13.2875 17.2405 13.5V15.75H14.9905C14.778 15.75 14.5999 15.8218 14.4563 15.9655C14.3124 16.109 14.2405 16.2871 14.2405 16.4998C14.2405 16.7122 14.3124 16.8904 14.4563 17.0343C14.5999 17.1781 14.778 17.25 14.9905 17.25Z" fill="#F7F7F7"/>
</g>
</svg>
