<svg width="25" height="25" viewBox="0 0 25 25" fill="none" xmlns="http://www.w3.org/2000/svg">
<mask id="mask0_2172_125" style="mask-type:alpha" maskUnits="userSpaceOnUse" x="0" y="0" width="25" height="25">
<rect x="0.751221" y="0.862305" width="24" height="24" fill="#D9D9D9"/>
</mask>
<g mask="url(#mask0_2172_125)">
<path d="M12.7512 13.9161L7.67823 18.9893C7.53973 19.1277 7.36565 19.1985 7.15598 19.2018C6.94648 19.205 6.76923 19.1342 6.62423 18.9893C6.4794 18.8443 6.40698 18.6687 6.40698 18.4623C6.40698 18.256 6.4794 18.0803 6.62423 17.9353L11.6975 12.8623L6.62423 7.78932C6.4859 7.65082 6.41507 7.47673 6.41173 7.26707C6.40857 7.05757 6.4794 6.88032 6.62423 6.73532C6.76923 6.59048 6.9449 6.51807 7.15123 6.51807C7.35757 6.51807 7.53323 6.59048 7.67823 6.73532L12.7512 11.8086L17.8242 6.73532C17.9627 6.59698 18.1368 6.52615 18.3465 6.52282C18.556 6.51965 18.7332 6.59048 18.8782 6.73532C19.0231 6.88032 19.0955 7.05598 19.0955 7.26232C19.0955 7.46865 19.0231 7.64432 18.8782 7.78932L13.805 12.8623L18.8782 17.9353C19.0166 18.0738 19.0874 18.2479 19.0907 18.4576C19.0939 18.6671 19.0231 18.8443 18.8782 18.9893C18.7332 19.1342 18.5576 19.2066 18.3512 19.2066C18.1449 19.2066 17.9692 19.1342 17.8242 18.9893L12.7512 13.9161Z" fill="#F7F7F7"/>
</g>
</svg>
