<svg width="21" height="21" viewBox="0 0 21 21" fill="none" xmlns="http://www.w3.org/2000/svg">
<mask id="mask0_152_1286" style="mask-type:luminance" maskUnits="userSpaceOnUse" x="0" y="0" width="21" height="21">
<path d="M20.2512 0.862305H0.251221V20.8623H20.2512V0.862305Z" fill="white"/>
</mask>
<g mask="url(#mask0_152_1286)">
<path d="M19.8512 11.0894C19.8512 10.3803 19.7876 9.69855 19.6694 9.04395H10.2512V12.9121H15.633C15.4012 14.1621 14.6967 15.2212 13.6376 15.9303V18.4394H16.8694C18.7603 16.6985 19.8512 14.1348 19.8512 11.0894Z" fill="#4285F4"/>
<path d="M10.2513 20.8622C12.9513 20.8622 15.2149 19.9667 16.8694 18.4395L13.6376 15.9304C12.7422 16.5304 11.5967 16.8849 10.2513 16.8849C7.64674 16.8849 5.44224 15.1258 4.65584 12.7622H1.31494V15.3531C2.96044 18.6213 6.34224 20.8622 10.2513 20.8622Z" fill="#34A853"/>
<path d="M4.65572 12.7625C4.45572 12.1625 4.34212 11.5216 4.34212 10.8625C4.34212 10.2034 4.45572 9.56248 4.65572 8.96248V6.37158H1.31482C0.63762 7.72158 0.251221 9.24888 0.251221 10.8625C0.251221 12.4761 0.63762 14.0034 1.31482 15.3534L4.65572 12.7625Z" fill="#FBBC04"/>
<path d="M10.2513 4.8396C11.7194 4.8396 13.0376 5.3441 14.074 6.335L16.9422 3.4668C15.2104 1.8532 12.9467 0.862305 10.2513 0.862305C6.34224 0.862305 2.96044 3.1032 1.31494 6.3714L4.65584 8.96231C5.44224 6.59871 7.64674 4.8396 10.2513 4.8396Z" fill="#E94235"/>
</g>
</svg>
