<svg width="76" height="39" viewBox="0 0 76 39" fill="none" xmlns="http://www.w3.org/2000/svg">
<path d="M42.4557 13.6397C44.4059 13.6397 46.5473 13.696 49.2523 10.6287L39.7096 38.0124C42.6722 29.5109 48.0223 11.5016 53.8411 10.6287C62.4727 9.33379 62.0957 27.6309 47.6659 26.562" stroke="#F7F7F7" stroke-width="4.4"/>
<path d="M74.6996 12.8857C71.1717 11.2842 66.1618 12.3448 65.761 15.5512C65.26 19.5591 71.1717 19.7595 71.1717 22.8656C71.1717 26.5225 63.0589 28.7773 54.4419 25.07" stroke="#F7F7F7" stroke-width="4.4"/>
<rect x="38.0295" y="1.71191" width="5.6" height="5.6" rx="2.8" fill="#EF4B56"/>
<path d="M19.8327 22.051C25.013 18.9341 34.8624 5.59963 30.6057 2.65625C23.898 -1.982 10.3902 37.332 28.4085 26.1134" stroke="#F7F7F7" stroke-width="4.4"/>
<path d="M43.7584 25.2005C26.8646 34.2718 38.9174 10.563 38.9174 10.563C37.2561 14.5646 33.1211 23.3096 28.2641 26.1766" stroke="#F7F7F7" stroke-width="4.4"/>
<path d="M16.4041 11.0915C12.5363 10.7436 5.37779 12.0687 3.10906 19.6286C0.122693 29.5798 10.9894 31.1421 18.9785 22.0972" stroke="#F7F7F7" stroke-width="4.4"/>
</svg>
