<svg width="25" height="25" viewBox="0 0 25 25" fill="none" xmlns="http://www.w3.org/2000/svg">
<mask id="mask0_2288_1147" style="mask-type:alpha" maskUnits="userSpaceOnUse" x="0" y="0" width="25" height="25">
<rect x="0.392334" y="0.15625" width="24" height="24" fill="#D9D9D9"/>
</mask>
<g mask="url(#mask0_2288_1147)">
<path d="M10.9731 14.3025L8.65008 11.9793C8.51158 11.8409 8.3375 11.7701 8.12783 11.7668C7.91833 11.7636 7.74108 11.8344 7.59608 11.9793C7.45125 12.1243 7.37883 12.2999 7.37883 12.5063C7.37883 12.7126 7.45125 12.8882 7.59608 13.0332L10.3403 15.7775C10.5212 15.9582 10.7321 16.0485 10.9731 16.0485C11.2141 16.0485 11.425 15.9582 11.6058 15.7775L17.1693 10.214C17.3077 10.0755 17.3785 9.90142 17.3818 9.69175C17.385 9.48225 17.3142 9.305 17.1693 9.16C17.0243 9.01517 16.8487 8.94275 16.6423 8.94275C16.436 8.94275 16.2603 9.01517 16.1153 9.16L10.9731 14.3025ZM12.3941 21.6562C11.0801 21.6562 9.845 21.4069 8.68883 20.9083C7.53267 20.4096 6.527 19.7328 5.67183 18.878C4.81667 18.0232 4.13958 17.0179 3.64058 15.8623C3.14175 14.7066 2.89233 13.4718 2.89233 12.158C2.89233 10.844 3.14167 9.60892 3.64033 8.45275C4.139 7.29658 4.81575 6.29092 5.67058 5.43575C6.52542 4.58058 7.53067 3.9035 8.68633 3.4045C9.842 2.90567 11.0768 2.65625 12.3906 2.65625C13.7046 2.65625 14.9397 2.90558 16.0958 3.40425C17.252 3.90292 18.2577 4.57967 19.1128 5.4345C19.968 6.28933 20.6451 7.29458 21.1441 8.45025C21.6429 9.60592 21.8923 10.8407 21.8923 12.1545C21.8923 13.4685 21.643 14.7036 21.1443 15.8598C20.6457 17.0159 19.9689 18.0216 19.1141 18.8768C18.2593 19.7319 17.254 20.409 16.0983 20.908C14.9427 21.4068 13.7079 21.6562 12.3941 21.6562Z" fill="#EF4B56"/>
</g>
</svg>
