<svg width="33" height="33" viewBox="0 0 33 33" fill="none" xmlns="http://www.w3.org/2000/svg">
<mask id="mask0_2257_560" style="mask-type:alpha" maskUnits="userSpaceOnUse" x="0" y="0" width="33" height="33">
<rect x="0.392334" y="0.499023" width="32" height="32" fill="#D9D9D9"/>
</mask>
<g mask="url(#mask0_2257_560)">
<path d="M14.658 20.9505L20.5787 17.1565C20.8254 16.9992 20.9487 16.7805 20.9487 16.5005C20.9487 16.2205 20.8254 16.001 20.5787 15.8419L14.658 12.0479C14.3954 11.8667 14.127 11.8517 13.853 12.0029C13.579 12.1542 13.442 12.3883 13.442 12.7052V20.2932C13.442 20.6101 13.579 20.8442 13.853 20.9955C14.127 21.1466 14.3954 21.1316 14.658 20.9505ZM16.3947 29.1659C14.6518 29.1659 13.011 28.8334 11.4724 28.1685C9.93371 27.5036 8.59049 26.5976 7.44271 25.4505C6.29515 24.3032 5.38871 22.9605 4.72337 21.4225C4.05826 19.8845 3.72571 18.2442 3.72571 16.5015C3.72571 14.7495 4.05815 13.1027 4.72304 11.5612C5.38793 10.0196 6.29393 8.67874 7.44104 7.53852C8.58838 6.3983 9.93104 5.49552 11.469 4.83019C13.007 4.16507 14.6474 3.83252 16.39 3.83252C18.142 3.83252 19.7888 4.16496 21.3304 4.82985C22.8719 5.49474 24.2128 6.39708 25.353 7.53685C26.4933 8.67663 27.396 10.017 28.0614 11.5579C28.7265 13.0987 29.059 14.7451 29.059 16.4969C29.059 18.2397 28.7266 19.8805 28.0617 21.4192C27.3968 22.9579 26.4945 24.3011 25.3547 25.4489C24.2149 26.5964 22.8746 27.5029 21.3337 28.1682C19.7928 28.8333 18.1465 29.1659 16.3947 29.1659ZM16.3924 27.4905C19.4544 27.4905 22.0518 26.4219 24.1847 24.2845C26.3174 22.1472 27.3837 19.5521 27.3837 16.4992C27.3837 13.4372 26.3174 10.8397 24.1847 8.70685C22.0518 6.57419 19.4544 5.50785 16.3924 5.50785C13.3395 5.50785 10.7444 6.57419 8.60704 8.70685C6.46971 10.8397 5.40104 13.4372 5.40104 16.4992C5.40104 19.5521 6.46971 22.1472 8.60704 24.2845C10.7444 26.4219 13.3395 27.4905 16.3924 27.4905Z" fill="#EF4B56"/>
</g>
</svg>
