<svg width="33" height="33" viewBox="0 0 33 33" fill="none" xmlns="http://www.w3.org/2000/svg">
<mask id="mask0_2257_1283" style="mask-type:alpha" maskUnits="userSpaceOnUse" x="0" y="0" width="33" height="33">
<rect x="0.392334" y="0.499023" width="32" height="32" fill="#D9D9D9"/>
</mask>
<g mask="url(#mask0_2257_1283)">
<path d="M4.81138 25.1659C4.24226 25.1659 3.75237 24.9605 3.34171 24.5499C2.93104 24.1392 2.72571 23.6493 2.72571 23.0802V9.91819C2.72571 9.34908 2.93104 8.85919 3.34171 8.44852C3.75237 8.03785 4.24226 7.83252 4.81138 7.83252H17.9737C18.5426 7.83252 19.0324 8.03785 19.443 8.44852C19.8537 8.85919 20.059 9.34908 20.059 9.91819V23.0802C20.059 23.6493 19.8537 24.1392 19.443 24.5499C19.0324 24.9605 18.5426 25.1659 17.9737 25.1659H4.81138ZM23.937 15.1659C23.5893 15.1659 23.3005 15.0509 23.0707 14.8209C22.8407 14.5911 22.7257 14.3023 22.7257 13.9545V9.04419C22.7257 8.69619 22.8407 8.4073 23.0707 8.17752C23.3005 7.94752 23.5893 7.83252 23.937 7.83252H28.8474C29.1954 7.83252 29.4843 7.94752 29.714 8.17752C29.944 8.4073 30.059 8.69619 30.059 9.04419V13.9545C30.059 14.3023 29.944 14.5911 29.714 14.8209C29.4843 15.0509 29.1954 15.1659 28.8474 15.1659H23.937ZM24.4007 13.4909H28.3837V9.50785H24.4007V13.4909ZM4.81138 23.4905H17.9737C18.0933 23.4905 18.1915 23.4521 18.2684 23.3752C18.3453 23.2983 18.3837 23.2 18.3837 23.0802V9.91819C18.3837 9.79841 18.3453 9.70007 18.2684 9.62319C18.1915 9.5463 18.0933 9.50785 17.9737 9.50785H4.81138C4.6916 9.50785 4.59326 9.5463 4.51637 9.62319C4.43949 9.70007 4.40104 9.79841 4.40104 9.91819V23.0802C4.40104 23.2 4.43949 23.2983 4.51637 23.3752C4.59326 23.4521 4.6916 23.4905 4.81138 23.4905ZM7.23004 20.4352H15.5547C15.7538 20.4352 15.9032 20.3409 16.0027 20.1522C16.1025 19.9635 16.0928 19.7786 15.9737 19.5975L13.6444 16.4855C13.5346 16.3489 13.395 16.2805 13.2257 16.2805C13.0566 16.2805 12.917 16.3489 12.807 16.4855L10.7257 19.2685L9.31104 17.3855C9.20126 17.2489 9.06171 17.1805 8.89237 17.1805C8.72326 17.1805 8.58371 17.2489 8.47371 17.3855L6.81104 19.5975C6.69215 19.7786 6.68249 19.9635 6.78204 20.1522C6.8816 20.3409 7.03093 20.4352 7.23004 20.4352ZM23.937 25.1659C23.5893 25.1659 23.3005 25.0509 23.0707 24.8209C22.8407 24.5911 22.7257 24.3022 22.7257 23.9542V19.0439C22.7257 18.6961 22.8407 18.4073 23.0707 18.1775C23.3005 17.9475 23.5893 17.8325 23.937 17.8325H28.8474C29.1954 17.8325 29.4843 17.9475 29.714 18.1775C29.944 18.4073 30.059 18.6961 30.059 19.0439V23.9542C30.059 24.3022 29.944 24.5911 29.714 24.8209C29.4843 25.0509 29.1954 25.1659 28.8474 25.1659H23.937ZM24.4007 23.4905H28.3837V19.5075H24.4007V23.4905Z" fill="#EF4B56"/>
</g>
</svg>
