<svg width="33" height="33" viewBox="0 0 33 33" fill="none" xmlns="http://www.w3.org/2000/svg">
<mask id="mask0_2257_577" style="mask-type:alpha" maskUnits="userSpaceOnUse" x="0" y="0" width="33" height="33">
<rect x="0.392334" y="0.499023" width="32" height="32" fill="#D9D9D9"/>
</mask>
<g mask="url(#mask0_2257_577)">
<path d="M15.5547 16.2625L13.354 18.4565C13.1953 18.623 13.0023 18.7062 12.775 18.7062C12.5477 18.7062 12.3518 18.6235 12.1873 18.4582C12.0238 18.2975 11.9427 18.0988 11.944 17.8619C11.9456 17.6248 12.0267 17.4259 12.1873 17.2652L15.6617 13.7772C15.8706 13.5692 16.1143 13.4652 16.393 13.4652C16.6717 13.4652 16.915 13.5692 17.123 13.7772L20.611 17.2652C20.7717 17.4259 20.8553 17.6209 20.862 17.8502C20.8684 18.0795 20.7848 18.2752 20.611 18.4372C20.4503 18.6028 20.2529 18.6832 20.0187 18.6785C19.7842 18.6737 19.584 18.5909 19.418 18.4302L17.23 16.2625V24.4129C17.23 24.5155 17.2727 24.6097 17.358 24.6952C17.4436 24.7805 17.5377 24.8232 17.6403 24.8232H25.235C26.2014 24.8232 27.0234 24.484 27.701 23.8055C28.3783 23.1273 28.717 22.3069 28.717 21.3442C28.717 20.3815 28.3783 19.5614 27.701 18.8839C27.0234 18.2065 26.2004 17.8679 25.232 17.8679H23.1853V15.1292C23.1853 13.2243 22.5249 11.5911 21.204 10.2295C19.8829 8.86821 18.2684 8.18754 16.3607 8.18754C14.4531 8.18754 12.835 8.86821 11.5063 10.2295C10.1779 11.5911 9.51367 13.2243 9.51367 15.1292H8.835C7.52967 15.1292 6.40878 15.5991 5.47233 16.5389C4.53589 17.4784 4.06767 18.6271 4.06767 19.9849C4.06767 21.3129 4.539 22.4513 5.48167 23.4002C6.42456 24.3489 7.56289 24.8232 8.89667 24.8232H12.042C12.2793 24.8232 12.4782 24.904 12.6387 25.0655C12.7993 25.2269 12.8797 25.4269 12.8797 25.6655C12.8797 25.904 12.7993 26.1024 12.6387 26.2609C12.4782 26.4193 12.2793 26.4985 12.042 26.4985H8.89667C7.10511 26.4985 5.57322 25.8653 4.301 24.5989C3.02856 23.3324 2.39233 21.8015 2.39233 20.0062C2.39233 18.3555 2.93811 16.9084 4.02967 15.6649C5.121 14.4213 6.46756 13.7089 8.06933 13.5275C8.43978 11.4831 9.40889 9.80276 10.9767 8.48654C12.5444 7.17032 14.3617 6.51221 16.4283 6.51221C18.8003 6.51221 20.7988 7.3531 22.4237 9.03488C24.0483 10.7167 24.8607 12.7481 24.8607 15.1292V16.1925H25.271C26.7092 16.1937 27.9223 16.688 28.9103 17.6755C29.8983 18.6629 30.3923 19.8848 30.3923 21.3412C30.3923 22.7623 29.8923 23.9771 28.8923 24.9855C27.8923 25.9942 26.6818 26.4985 25.2607 26.4985H17.6403C17.0672 26.4985 16.5763 26.2942 16.1677 25.8855C15.759 25.4769 15.5547 24.986 15.5547 24.4129V16.2625Z" fill="#EF4B56"/>
</g>
</svg>
