<svg width="33" height="33" viewBox="0 0 33 33" fill="none" xmlns="http://www.w3.org/2000/svg">
<mask id="mask0_2257_1109" style="mask-type:alpha" maskUnits="userSpaceOnUse" x="0" y="0" width="33" height="33">
<rect x="0.392334" y="0.499023" width="32" height="32" fill="#D9D9D9"/>
</mask>
<g mask="url(#mask0_2257_1109)">
<path d="M5.81138 26.499C5.23826 26.499 4.74737 26.2947 4.33871 25.886C3.93004 25.4774 3.72571 24.9865 3.72571 24.4134V8.58469C3.72571 8.01158 3.93004 7.52069 4.33871 7.11202C4.74737 6.70336 5.23826 6.49902 5.81138 6.49902L7.53171 9.98969C7.69237 10.3157 7.92571 10.5721 8.23171 10.759C8.53793 10.9459 8.8636 11.0394 9.20871 11.0394C9.90404 11.0394 10.4328 10.7457 10.795 10.1584C11.1573 9.57125 11.1857 8.96513 10.8804 8.34002L9.97371 6.49902H12.789L14.5094 9.98969C14.67 10.3157 14.9035 10.5721 15.2097 10.759C15.5157 10.9459 15.8413 11.0394 16.1864 11.0394C16.8819 11.0394 17.4108 10.7457 17.773 10.1584C18.1353 9.57125 18.1608 8.96513 17.8497 8.34002L16.9514 6.49902H19.7584L21.4787 9.98969C21.6394 10.3157 21.8726 10.5721 22.1784 10.759C22.4842 10.9459 22.8135 11.0394 23.1664 11.0394C23.8628 11.0394 24.3916 10.7451 24.7527 10.1567C25.1136 9.56847 25.1385 8.96291 24.8274 8.34002L23.9207 6.49902H26.9734C27.5465 6.49902 28.0374 6.70336 28.446 7.11202C28.8547 7.52069 29.059 8.01158 29.059 8.58469V13.0247C29.059 13.3051 28.9596 13.5448 28.7607 13.7437C28.562 13.9424 28.3225 14.0417 28.042 14.0417H27.3837V12.7144H5.40104V24.4134C5.40104 24.5331 5.43949 24.6315 5.51637 24.7084C5.59326 24.7852 5.6916 24.8237 5.81138 24.8237H15.777C16.0148 24.8237 16.2138 24.9042 16.374 25.0654C16.5345 25.2265 16.6147 25.4265 16.6147 25.6654C16.6147 25.9042 16.5345 26.1029 16.374 26.2614C16.2138 26.4198 16.0148 26.499 15.777 26.499H5.81138ZM19.213 26.7897V24.7264C19.213 24.5961 19.2375 24.4696 19.2864 24.3467C19.3355 24.2238 19.4148 24.1075 19.5244 23.9977L26.446 17.108C26.6132 16.9409 26.7942 16.8232 26.989 16.755C27.1837 16.687 27.3774 16.653 27.57 16.653C27.7763 16.653 27.9782 16.6922 28.1757 16.7707C28.373 16.8494 28.5504 16.9674 28.7077 17.1247L29.941 18.3707C30.0937 18.5367 30.2072 18.7162 30.2814 18.9094C30.3554 19.1025 30.3924 19.2956 30.3924 19.4887C30.3924 19.6818 30.3527 19.8784 30.2734 20.0784C30.1943 20.2784 30.0783 20.4622 29.9254 20.63L23.0477 27.5207C22.9379 27.6305 22.8216 27.7098 22.6987 27.7587C22.5758 27.8078 22.4492 27.8324 22.3187 27.8324H20.2557C19.9582 27.8324 19.7099 27.7329 19.511 27.534C19.3124 27.3354 19.213 27.0872 19.213 26.7897ZM20.8027 26.2427H22.0694L26.3974 21.8937L25.7847 21.2604L25.164 20.635L20.8027 24.976V26.2427ZM25.7847 21.2604L25.164 20.635L26.3974 21.8937L25.7847 21.2604Z" fill="#E3E3E3"/>
</g>
</svg>
