<svg width="25" height="25" viewBox="0 0 25 25" fill="none" xmlns="http://www.w3.org/2000/svg">
<mask id="mask0_2288_760" style="mask-type:alpha" maskUnits="userSpaceOnUse" x="0" y="0" width="25" height="25">
<rect x="0.392334" y="0.499023" width="24" height="24" fill="#D9D9D9"/>
</mask>
<g mask="url(#mask0_2288_760)">
<path d="M10.9731 14.6453L8.65008 12.322C8.51158 12.1837 8.3375 12.1129 8.12783 12.1095C7.91833 12.1064 7.74108 12.1772 7.59608 12.322C7.45125 12.467 7.37883 12.6427 7.37883 12.849C7.37883 13.0554 7.45125 13.231 7.59608 13.376L10.3403 16.1203C10.5212 16.3009 10.7321 16.3913 10.9731 16.3913C11.2141 16.3913 11.425 16.3009 11.6058 16.1203L17.1693 10.5568C17.3077 10.4183 17.3785 10.2442 17.3818 10.0345C17.385 9.82502 17.3142 9.64777 17.1693 9.50277C17.0243 9.35794 16.8487 9.28552 16.6423 9.28552C16.436 9.28552 16.2603 9.35794 16.1153 9.50277L10.9731 14.6453ZM12.3941 21.999C11.0801 21.999 9.845 21.7497 8.68883 21.251C7.53267 20.7524 6.527 20.0756 5.67183 19.2208C4.81667 18.3659 4.13958 17.3607 3.64058 16.205C3.14175 15.0494 2.89233 13.8146 2.89233 12.5008C2.89233 11.1868 3.14167 9.95169 3.64033 8.79552C4.139 7.63936 4.81575 6.63369 5.67058 5.77852C6.52542 4.92336 7.53067 4.24627 8.68633 3.74727C9.842 3.24844 11.0768 2.99902 12.3906 2.99902C13.7046 2.99902 14.9397 3.24836 16.0958 3.74702C17.252 4.24569 18.2577 4.92244 19.1128 5.77727C19.968 6.63211 20.6451 7.63736 21.1441 8.79302C21.6429 9.94869 21.8923 11.1834 21.8923 12.4973C21.8923 13.8113 21.643 15.0464 21.1443 16.2025C20.6457 17.3587 19.9689 18.3644 19.1141 19.2195C18.2593 20.0747 17.254 20.7518 16.0983 21.2508C14.9427 21.7496 13.7079 21.999 12.3941 21.999ZM12.3923 20.499C14.6257 20.499 16.5173 19.724 18.0673 18.174C19.6173 16.624 20.3923 14.7324 20.3923 12.499C20.3923 10.2657 19.6173 8.37402 18.0673 6.82402C16.5173 5.27402 14.6257 4.49902 12.3923 4.49902C10.159 4.49902 8.26733 5.27402 6.71733 6.82402C5.16733 8.37402 4.39233 10.2657 4.39233 12.499C4.39233 14.7324 5.16733 16.624 6.71733 18.174C8.26733 19.724 10.159 20.499 12.3923 20.499Z" fill="#E3E3E3"/>
</g>
</svg>
