<svg width="25" height="24" viewBox="0 0 25 24" fill="none" xmlns="http://www.w3.org/2000/svg">
<mask id="mask0_2186_1001" style="mask-type:alpha" maskUnits="userSpaceOnUse" x="0" y="0" width="25" height="24">
<rect x="0.5" width="24" height="24" fill="#D9D9D9"/>
</mask>
<g mask="url(#mask0_2186_1001)">
<path d="M12.5025 10.0288L17.676 15.2024C17.8125 15.3388 17.9731 15.4053 18.158 15.4019C18.343 15.3983 18.5037 15.3283 18.6401 15.1919C18.7766 15.0553 18.8448 14.8946 18.8448 14.7097C18.8448 14.5249 18.7766 14.3642 18.6401 14.2276L13.3821 8.95916C13.2579 8.83496 13.1188 8.74293 12.9647 8.68306C12.8107 8.6232 12.6566 8.59326 12.5025 8.59326C12.3484 8.59326 12.1944 8.6232 12.0403 8.68306C11.8862 8.74293 11.7471 8.83496 11.6229 8.95916L6.35426 14.2276C6.21782 14.3642 6.15137 14.5267 6.15492 14.7151C6.15847 14.9035 6.22846 15.0659 6.36491 15.2024C6.50135 15.3388 6.66207 15.407 6.84704 15.407C7.03191 15.407 7.19256 15.3388 7.32901 15.2024L12.5025 10.0288Z" fill="#F7F7F7"/>
</g>
</svg>
